<svg xmlns="http://www.w3.org/2000/svg" viewBox="0 0 400 400" width="400" height="400">
  <!-- Background -->
  <circle cx="200" cy="200" r="190" fill="#F8F6F1"/>
  <!-- Outer ring -->
  <circle cx="200" cy="200" r="175" fill="none" stroke="#A8873A" stroke-width="2.5"/>
  <!-- Muscular figure - double bicep pose -->
  <g fill="none" stroke="#A8873A" stroke-width="4" stroke-linecap="round" stroke-linejoin="round">
    <!-- Head -->
    <ellipse cx="200" cy="145" rx="18" ry="22"/>
    <!-- Neck -->
    <line x1="192" y1="167" x2="188" y2="180"/>
    <line x1="208" y1="167" x2="212" y2="180"/>
    <!-- Shoulders / Traps -->
    <path d="M188 180 Q180 178 160 190 Q140 200 130 198"/>
    <path d="M212 180 Q220 178 240 190 Q260 200 270 198"/>
    <!-- Left upper arm -->
    <path d="M130 198 Q120 195 112 185 Q105 175 100 160"/>
    <!-- Left forearm -->
    <path d="M100 160 Q105 150 115 148 Q130 146 140 155"/>
    <!-- Left bicep detail -->
    <path d="M115 175 Q108 170 105 162"/>
    <path d="M130 198 Q125 188 118 182"/>
    <!-- Right upper arm -->
    <path d="M270 198 Q280 195 288 185 Q295 175 300 160"/>
    <!-- Right forearm -->
    <path d="M300 160 Q295 150 285 148 Q270 146 260 155"/>
    <!-- Right bicep detail -->
    <path d="M285 175 Q292 170 295 162"/>
    <path d="M270 198 Q275 188 282 182"/>
    <!-- Torso - chest -->
    <path d="M188 180 Q185 195 182 210 Q180 225 178 240"/>
    <path d="M212 180 Q215 195 218 210 Q220 225 222 240"/>
    <!-- Chest detail / pecs -->
    <path d="M188 195 Q195 200 200 200 Q205 200 212 195"/>
    <!-- Ab line -->
    <line x1="200" y1="200" x2="200" y2="240"/>
    <!-- Waist -->
    <path d="M178 240 Q185 245 200 245 Q215 245 222 240"/>
    <!-- Lower torso / obliques -->
    <path d="M160 190 Q170 200 175 210"/>
    <path d="M240 190 Q230 200 225 210"/>
  </g>
</svg>
