<svg xmlns="http://www.w3.org/2000/svg" viewBox="0 0 400 400" width="400" height="400">
<circle cx="200" cy="200" r="190" fill="#0F1525"/>
<circle cx="200" cy="200" r="182" fill="none" stroke="#C9A84C" stroke-width="1.5"/>
<circle cx="200" cy="200" r="174" fill="none" stroke="#C9A84C" stroke-width="0.4" opacity="0.25"/>
<g transform="translate(-31.9,-18.5) scale(1.129)" fill="#C9A84C"><path d="M85.8 157.5 Q88.0 165.0 94.7 167.9 Q101.4 170.9 110.4 177.3 Q119.3 183.6 124.9 185.1 Q130.5 186.6 137.6 186.6 Q144.7 186.6 145.8 191.4 Q146.9 196.3 149.9 196.6 Q152.9 197.0 149.9 191.0 Q146.9 185.1 147.6 183.2 Q148.4 181.4 152.9 182.1 Q157.3 182.8 160.3 181.4 Q163.3 179.9 157.7 180.2 Q152.1 180.6 147.6 179.1 Q143.2 177.6 138.7 173.2 Q134.2 168.7 132.7 165.7 Q131.2 162.7 130.9 164.6 Q130.5 166.5 131.2 167.9 Q132.0 169.4 139.1 175.0 Q146.2 180.6 140.2 182.1 Q134.2 183.6 129.8 182.8 Q125.3 182.1 115.2 176.1 Q105.2 170.2 98.8 167.6 Q92.5 165.0 91.0 162.7 Q89.5 160.5 90.6 157.5 Q91.8 154.5 92.5 156.0 Q93.2 157.5 94.0 157.1 Q94.7 156.8 94.0 156.4 Q93.2 156.0 92.9 152.7 Q92.5 149.3 94.7 144.1 Q97.0 138.9 104.1 129.9 Q111.1 121.0 115.2 113.9 Q119.3 106.8 123.1 104.6 Q126.8 102.4 135.7 100.9 Q144.7 99.4 148.8 103.5 Q152.9 107.6 152.5 110.2 Q152.1 112.8 150.6 113.5 Q149.1 114.3 148.4 111.3 Q147.6 108.3 145.8 107.2 Q143.9 106.1 143.2 106.8 Q142.4 107.6 144.3 109.4 Q146.2 111.3 145.8 112.8 Q145.4 114.3 141.3 114.3 Q137.2 114.3 133.5 112.8 Q129.8 111.3 126.0 116.9 Q122.3 122.5 121.2 132.5 Q120.1 142.6 119.0 144.8 Q117.8 147.1 113.4 151.2 Q108.9 155.3 117.1 151.6 Q125.3 147.8 130.9 147.5 Q136.5 147.1 138.0 147.8 Q139.4 148.6 139.8 150.1 Q140.2 151.6 136.8 154.9 Q133.5 158.3 133.1 159.7 Q132.7 161.2 140.9 155.6 Q149.1 150.1 156.2 149.3 Q163.3 148.6 167.0 150.1 Q170.7 151.6 171.9 152.7 Q173.0 153.8 165.5 158.3 Q158.1 162.7 158.1 163.5 Q158.1 164.2 163.7 170.2 Q169.3 176.1 175.6 180.6 Q181.9 185.1 181.9 188.8 Q181.9 192.5 180.4 194.8 Q178.9 197.0 180.4 195.9 Q181.9 194.8 183.0 195.9 Q184.2 197.0 186.4 197.0 Q188.6 197.0 186.8 194.8 Q184.9 192.5 184.9 188.1 Q184.9 183.6 177.8 178.8 Q170.7 173.9 165.5 168.7 Q160.3 163.5 178.6 154.5 Q196.8 145.6 194.6 146.0 Q192.4 146.3 193.8 142.6 Q195.3 138.9 194.6 134.0 Q193.8 129.2 190.9 126.6 Q187.9 124.0 190.5 128.4 Q193.1 132.9 193.1 135.9 Q193.1 138.9 192.0 140.7 Q190.9 142.6 189.7 136.3 Q188.6 129.9 186.0 126.6 Q183.4 123.2 183.4 118.4 Q183.4 113.5 185.3 116.5 Q187.1 119.5 185.6 111.7 Q184.2 103.9 186.0 100.1 Q187.9 96.4 190.9 93.8 Q193.8 91.2 197.6 89.3 Q201.3 87.5 205.0 87.1 Q208.8 86.7 212.1 88.2 Q215.5 89.7 215.1 90.4 Q214.7 91.2 217.3 91.6 Q219.9 91.9 221.8 93.8 Q223.7 95.7 224.0 103.1 Q224.4 110.6 223.3 112.1 Q222.2 113.5 222.5 116.5 Q222.9 119.5 223.7 116.9 Q224.4 114.3 225.5 114.3 Q226.6 114.3 226.3 119.1 Q225.9 124.0 223.7 126.2 Q221.4 128.4 220.3 135.5 Q219.2 142.6 217.7 140.0 Q216.2 137.4 216.2 135.2 Q216.2 132.9 218.1 128.4 Q219.9 124.0 216.9 128.1 Q214.0 132.2 215.1 138.9 Q216.2 145.6 214.3 146.0 Q212.5 146.3 219.2 148.6 Q225.9 150.8 236.7 156.4 Q247.5 162.0 248.6 161.6 Q249.7 161.2 245.6 159.4 Q241.5 157.5 239.7 155.6 Q237.8 153.8 242.7 151.2 Q247.5 148.6 255.0 149.3 Q262.4 150.1 269.1 154.9 Q275.8 159.7 276.6 159.7 Q277.3 159.7 273.2 154.9 Q269.1 150.1 272.5 148.2 Q275.8 146.3 279.2 146.3 Q282.5 146.3 291.5 150.4 Q300.4 154.5 295.6 148.6 Q290.7 142.6 289.6 132.2 Q288.5 121.7 287.0 118.8 Q285.5 115.8 283.3 113.5 Q281.0 111.3 273.2 112.4 Q265.4 113.5 264.3 112.8 Q263.1 112.1 265.4 110.6 Q267.6 109.1 267.2 108.0 Q266.9 106.8 264.3 108.3 Q261.7 109.8 261.3 111.7 Q260.9 113.5 258.3 110.2 Q255.7 106.8 260.2 102.7 Q264.6 98.6 276.6 100.9 Q288.5 103.1 302.6 123.6 Q316.8 144.1 317.2 148.6 Q317.5 153.0 316.4 154.9 Q315.3 156.8 317.5 156.0 Q319.8 155.3 320.5 157.9 Q321.3 160.5 318.7 163.1 Q316.1 165.7 310.8 167.9 Q305.6 170.2 299.3 174.7 Q293.0 179.1 287.4 181.0 Q281.8 182.8 275.8 182.8 Q269.9 182.8 266.9 181.7 Q263.9 180.6 270.6 175.8 Q277.3 170.9 278.4 167.6 Q279.5 164.2 275.4 168.7 Q271.3 173.2 267.6 175.8 Q263.9 178.4 259.4 179.9 Q255.0 181.4 251.6 180.2 Q248.2 179.1 248.6 180.2 Q249.0 181.4 251.2 182.1 Q253.5 182.8 258.3 182.5 Q263.1 182.1 262.0 186.6 Q260.9 191.0 259.1 194.0 Q257.2 197.0 260.2 197.0 Q263.1 197.0 265.0 191.0 Q266.9 185.1 274.0 185.8 Q281.0 186.6 285.5 185.5 Q290.0 184.3 299.7 177.6 Q309.4 170.9 315.3 168.3 Q321.3 165.7 323.1 163.1 Q325.0 160.5 321.3 148.9 Q317.5 137.4 314.9 133.3 Q312.3 129.2 309.7 127.3 Q307.1 125.5 307.1 124.4 Q307.1 123.2 298.5 112.1 Q290.0 100.9 280.3 98.6 Q270.6 96.4 266.5 96.4 Q262.4 96.4 257.6 100.5 Q252.7 104.6 252.7 106.5 Q252.7 108.3 256.8 112.4 Q260.9 116.5 270.2 115.4 Q279.5 114.3 282.5 118.4 Q285.5 122.5 286.6 132.9 Q287.7 143.4 280.7 143.4 Q273.6 143.4 269.5 145.6 Q265.4 147.8 260.5 146.3 Q255.7 144.8 250.1 145.2 Q244.5 145.6 239.7 148.2 Q234.8 150.8 229.6 148.6 Q224.4 146.3 223.3 145.2 Q222.2 144.1 222.2 139.6 Q222.2 135.2 222.9 132.9 Q223.7 130.7 225.5 128.8 Q227.4 127.0 228.1 119.5 Q228.9 112.1 227.8 111.3 Q226.6 110.6 227.4 106.5 Q228.1 102.4 227.8 97.5 Q227.4 92.7 225.9 90.8 Q224.4 89.0 217.7 86.0 Q211.0 83.0 204.3 83.7 Q197.6 84.5 190.5 88.6 Q183.4 92.7 182.3 96.8 Q181.2 100.9 181.9 105.7 Q182.7 110.6 181.6 111.3 Q180.4 112.1 180.4 115.0 Q180.4 118.0 181.6 122.9 Q182.7 127.7 184.5 128.8 Q186.4 129.9 187.1 132.5 Q187.9 135.2 187.9 139.6 Q187.9 144.1 185.6 146.3 Q183.4 148.6 179.7 149.7 Q176.0 150.8 173.0 148.9 Q170.0 147.1 165.9 146.0 Q161.8 144.8 157.0 145.2 Q152.1 145.6 148.4 147.1 Q144.7 148.6 140.9 146.3 Q137.2 144.1 131.2 144.5 Q125.3 144.8 124.2 144.1 Q123.1 143.4 123.8 141.5 Q124.5 139.6 124.5 132.9 Q124.5 126.2 126.0 122.1 Q127.5 118.0 129.0 116.5 Q130.5 115.0 139.1 116.2 Q147.6 117.3 150.3 116.2 Q152.9 115.0 154.4 112.8 Q155.8 110.6 154.0 105.7 Q152.1 100.9 150.6 99.4 Q149.1 97.9 145.0 97.5 Q140.9 97.2 133.1 98.6 Q125.3 100.1 121.6 102.0 Q117.8 103.9 114.5 109.4 Q111.1 115.0 102.9 125.1 Q94.7 135.2 92.9 138.9 Q91.0 142.6 90.3 147.1 Q89.5 151.6 87.7 154.5Z"/><path d="M205.8 178.4 Q204.3 197.0 205.4 197.0 Q206.5 197.0 206.1 187.7Z"/><path d="M251.2 164.2 Q225.9 183.6 225.9 187.7 Q225.9 191.8 224.0 194.4 Q222.2 197.0 225.5 196.3 Q228.9 195.5 230.4 196.3 Q231.9 197.0 230.4 195.1 Q228.9 193.3 229.2 188.4 Q229.6 183.6 236.3 179.1 Q243.0 174.7 247.1 169.4Z"/><path d="M102.9 161.2 Q112.6 166.5 116.3 166.1 Q120.1 165.7 113.4 164.6 Q106.7 163.5 105.9 162.4 Q105.2 161.2 104.1 161.2Z"/><path d="M308.6 160.5 Q290.0 166.5 294.1 166.5 Q298.2 166.5 303.4 163.5Z"/><path d="M108.1 137.4 Q102.2 145.6 102.2 149.3 Q102.2 153.0 105.2 145.2Z"/><path d="M302.6 135.2 Q302.6 138.9 306.0 145.2 Q309.4 151.6 308.6 148.2 Q307.9 144.8 305.3 140.0Z"/></g>
</svg>
